<?xml version="1.0" encoding="iso-8859-1"?>
<!-- Generator: Adobe Illustrator 19.0.0, SVG Export Plug-In . SVG Version: 6.00 Build 0)  -->
<svg version="1.1" id="Capa_1" xmlns="http://www.w3.org/2000/svg" xmlns:xlink="http://www.w3.org/1999/xlink" x="0px" y="0px"
	 viewBox="0 0 512.001 512.001" style="enable-background:new 0 0 512.001 512.001;" xml:space="preserve">
<g>
	<g>
		<path d="M467.001,90.001H284.028l44.453-66.68c4.596-6.893,2.733-16.206-4.16-20.801c-6.894-4.593-16.207-2.733-20.801,4.161
			L256,77.96L208.48,6.681c-4.595-6.893-13.909-8.755-20.801-4.161c-6.894,4.596-8.756,13.909-4.16,20.801l44.453,66.68H45
			c-24.813,0-45,20.187-45,45v272c0,24.813,20.187,45,45,45h156.73l-15,30H136c-8.284,0-15,6.716-15,15s6.716,15,15,15
			c12.355,0,226.7,0,240,0c8.284,0,15-6.716,15-15s-6.716-15-15-15h-50.73l-15-30H467c24.813,0,45-20.187,45-45v-272
			C512,110.188,491.814,90.001,467.001,90.001z M220.271,482.001l15-30h41.46l15,30H220.271z M482.001,407.001
			c0,8.271-6.729,15-15,15h-422c-8.271,0-15-6.729-15-15v-15h452V407.001z M482.001,362.001h-452v-182h452V362.001z
			 M482.001,150.001h-452v-15c0-8.271,6.729-15,15-15h422c8.271,0,15,6.729,15,15V150.001z"/>
	</g>
</g>
<g>
</g>
<g>
</g>
<g>
</g>
<g>
</g>
<g>
</g>
<g>
</g>
<g>
</g>
<g>
</g>
<g>
</g>
<g>
</g>
<g>
</g>
<g>
</g>
<g>
</g>
<g>
</g>
<g>
</g>
</svg>
